# xmcd CD database file
#
# Track frame offsets:
#	150
#	19667
#	35777
#	54777
#	73250
#	91187
#	108790
#	125117
#	150085
#	170832
#	190112
#	209320
#	246065
#
# Disc length: 4440 seconds
#
# Revision: 0
# Processed by: cddbd v1.5PL3 Copyright (c) Steve Scherf et al.
# Submitted via: CDex 1.51
#
DISCID=a811560d
DTITLE=オムニバス - BOOWY TRIBUTE
DYEAR=2003
DGENRE=Rock
TTITLE0=中西俊博 ／ PROLOGUE
TTITLE1=DJ HASEBE ／ INSTANT LOVE
TTITLE2=アン＊ルイス ／ FUNNY-BOY
TTITLE3=松岡 充 ／ DREAMIN'　
TTITLE4=LA-PPISCH ／ BAD FEELING
TTITLE5=ムーミン ／ CLOUDY HEART
TTITLE6=岩瀬敬吾 ／ BEAT SWEET
TTITLE7=RYOJI from ケツメイシ ／ わがままジュリエット
TTITLE8=藤木直人 ／ JUSTY
TTITLE9=NICOTINE ／ ONLY YOU
TTITLE10=The Spy"C"Dildog ／ B･BLUE
TTITLE11=朝本浩文  ／ 季節が君だけを変える
TTITLE12=データ トラック
EXTD=YEAR: 2003
EXTT0=
EXTT1=
EXTT2=
EXTT3=
EXTT4=
EXTT5=
EXTT6=
EXTT7=
EXTT8=
EXTT9=
EXTT10=
EXTT11=
EXTT12=
PLAYORDER=
